<svg width="409" height="76" viewBox="0 0 409 76" xmlns="http://www.w3.org/2000/svg" xmlns:xlink="http://www.w3.org/1999/xlink"><desc>Created with Sketch.</desc><defs><linearGradient x1="0%" y1="50%" x2="100.001%" y2="50%" id="b"><stop stop-color="#FEFEFE" offset="0%"/><stop stop-color="#EDEDED" offset="100%"/></linearGradient><linearGradient x1="-.001%" y1="49.999%" x2="99.999%" y2="49.999%" id="e"><stop stop-color="#FEFEFE" offset="0%"/><stop stop-color="#EDEDED" offset="100%"/></linearGradient><linearGradient x1=".001%" y1="49.998%" x2="100%" y2="49.998%" id="h"><stop stop-color="#FEFEFE" offset="0%"/><stop stop-color="#EDEDED" offset="100%"/></linearGradient><linearGradient x1="-.001%" y1="50.001%" x2="100%" y2="50.001%" id="k"><stop stop-color="#FEFEFE" offset="0%"/><stop stop-color="#EDEDED" offset="100%"/></linearGradient><linearGradient x1="0%" y1="50%" x2="100.001%" y2="50%" id="n"><stop stop-color="#FEFEFE" offset="0%"/><stop stop-color="#EDEDED" offset="100%"/></linearGradient><linearGradient x1="0%" y1="50%" x2="99.998%" y2="50%" id="q"><stop stop-color="#FEFEFE" offset="0%"/><stop stop-color="#EDEDED" offset="100%"/></linearGradient><linearGradient x1="0%" y1="49.998%" x2="100.001%" y2="49.998%" id="t"><stop stop-color="#FEFEFE" offset="0%"/><stop stop-color="#EDEDED" offset="100%"/></linearGradient><linearGradient x1="0%" y1="50%" x2="100.001%" y2="50%" id="w"><stop stop-color="#FEFEFE" offset="0%"/><stop stop-color="#EDEDED" offset="100%"/></linearGradient><linearGradient x1="0%" y1="50.002%" x2="100%" y2="50.002%" id="z"><stop stop-color="#FEFEFE" offset="0%"/><stop stop-color="#EDEDED" offset="100%"/></linearGradient><linearGradient x1="-.001%" y1="49.999%" x2="100.001%" y2="49.999%" id="C"><stop stop-color="#FEFEFE" offset="0%"/><stop stop-color="#EDEDED" offset="100%"/></linearGradient><linearGradient x1="0%" y1="50%" x2="100.001%" y2="50%" id="F"><stop stop-color="#FEFEFE" offset="0%"/><stop stop-color="#EDEDED" offset="100%"/></linearGradient><path d="M25.222.596v15.09c-2.236-.408-4.392-.619-6.47-.619-5.811 0-10.271 1.703-13.365 5.104C2.294 23.567.742 28.459.742 34.85c0 3.512.442 6.61 1.33 9.291.89 2.682 1.967 4.717 3.238 6.099a15.685 15.685 0 004.475 3.388c1.715.866 3.206 1.408 4.49 1.613 1.28.204 2.574.306 3.866.306 5.56 0 9.692-1.297 12.394-3.9 2.699-2.604 4.054-5.713 4.054-9.329V.596h-9.367zM11.897 44.359c-1.191-2.052-1.788-5.39-1.788-10.008 0-4.422.762-7.506 2.283-9.265 1.521-1.76 3.744-2.64 6.664-2.64 2.283.026 4.342.241 6.166.653v20.109c0 2.826-2.358 4.239-7.081 4.239-2.969 0-5.05-1.032-6.244-3.088z" id="a"/><path d="M4.187 5.982C1.412 9.747.023 14.78.023 21.078c0 3.198.385 6.021 1.133 8.467.757 2.446 1.724 4.354 2.9 5.74a14.836 14.836 0 004.212 3.418c1.64.896 3.213 1.487 4.74 1.77 1.52.277 3.14.418 4.873.418 5.453 0 10.34-1.175 14.659-3.53v-7.606c-4.266 2.02-8.68 3.036-13.249 3.036-2.82 0-5.113-.575-6.873-1.728-1.767-1.154-2.777-3.435-3.027-6.835H34.63c.107-1.05.155-2.677.155-4.88 0-5.35-1.463-9.856-4.4-13.517C27.456 2.168 23.138.339 17.428.339c-6.049 0-10.456 1.882-13.24 5.643m7.544 4.384c1.308-1.515 3.13-2.27 5.467-2.27 2.331 0 4.166.927 5.496 2.783 1.336 1.851 2.127 4.126 2.383 6.82H9.391c.25-3.378 1.033-5.826 2.34-7.333" id="d"/><path id="g" d="M29.869.169l-9.751 29.8L10.377.17H.397l14.887 39.25h9.75L39.917.169z"/><path d="M5.031 5.715C1.86 9.197.276 14.189.276 20.692S1.86 32.191 5.031 35.671c3.176 3.482 7.723 5.22 13.654 5.22 5.93 0 10.473-1.738 13.648-5.22 3.177-3.48 4.766-8.476 4.766-14.979 0-6.503-1.589-11.495-4.766-14.977C29.158 2.232 24.616.492 18.685.492S8.207 2.232 5.03 5.715m6.834 24.864c-1.483-1.699-2.224-4.988-2.224-9.865s.74-8.175 2.224-9.893C13.349 9.109 15.631 8.25 18.7 8.25c3.079 0 5.345.859 6.824 2.57 1.463 1.719 2.206 5.017 2.206 9.894s-.743 8.166-2.206 9.865c-1.479 1.706-3.745 2.555-6.824 2.555-3.069 0-5.35-.849-6.836-2.555" id="j"/><path d="M.66 4.717v35.564h9.368V9.442c2.538-.46 4.95-.691 7.233-.691 2.032 0 3.695.193 4.99.574 1.294.385 2.23.96 2.799 1.727.574.766.951 1.508 1.144 2.21.19.704.287 1.585.287 2.628v24.39h9.365V16.7c0-5.148-1.532-9.147-4.588-12C28.198 1.848 23.953.413 18.523.413 12.327.412 6.375 1.852.66 4.717" id="m"/><path d="M17.255.11c-.725.053-1.777.343-3.161.864-1.383.526-2.522 1.248-3.41 2.172-.889.922-1.68 2.356-2.379 4.299-.695 1.945-1.046 4.28-1.046 6.989v2.114H.56v5.183h6.7v34.067h5.639V21.731h10.66v-5.183h-10.66V14.36c0-2.15.214-3.9.64-5.242.435-1.345 1.11-2.278 2.024-2.806.91-.52 1.693-.836 2.341-.939.65-.103 1.59-.156 2.834-.156.84 0 1.777.104 2.82.312V.496c-1.091-.307-2.338-.46-3.735-.46-.988 0-1.845.026-2.567.073" id="p"/><path id="s" d="M49.435.169l-9.894 30.4-9.08-30.4H25.11l-8.95 30.375L6.227.169H.32l12.945 39.25h5.407L27.7 9.584l9.02 29.835h5.404L55.082.169z"/><path id="v" d="M.082 7.074l20.942 36.85h7.916l5.727-20.552L27.711.727z"/><path id="y" d="M21.024.631L.082 37.247l27.63-6.348 15.947-9.772L49.434.63z"/><path id="B" d="M6.432.518L.698 21.075l6.97 22.635 27.616-6.335L14.339.518z"/><path id="E" d="M22.198 6.641L6.201 16.56.468 36.922H28.87L49.814.306z"/></defs><g fill="none" fill-rule="evenodd"><g transform="translate(106.278 9.62)"><mask id="c" fill="#fff"><use xlink:href="#a"/></mask><path d="M25.222.596v15.09c-2.236-.408-4.392-.619-6.47-.619-5.811 0-10.271 1.703-13.365 5.104C2.294 23.567.742 28.459.742 34.85c0 3.512.442 6.61 1.33 9.291.89 2.682 1.967 4.717 3.238 6.099a15.685 15.685 0 004.475 3.388c1.715.866 3.206 1.408 4.49 1.613 1.28.204 2.574.306 3.866.306 5.56 0 9.692-1.297 12.394-3.9 2.699-2.604 4.054-5.713 4.054-9.329V.596h-9.367zM11.897 44.359c-1.191-2.052-1.788-5.39-1.788-10.008 0-4.422.762-7.506 2.283-9.265 1.521-1.76 3.744-2.64 6.664-2.64 2.283.026 4.342.241 6.166.653v20.109c0 2.826-2.358 4.239-7.081 4.239-2.969 0-5.05-1.032-6.244-3.088z" fill="url(#b)" mask="url(#c)"/></g><path d="M116.387 43.971c0 4.618.596 7.956 1.788 10.009 1.194 2.055 3.276 3.087 6.244 3.087 4.724 0 7.08-1.412 7.08-4.239V32.72c-1.824-.412-3.882-.627-6.165-.654-2.92 0-5.143.88-6.664 2.64-1.521 1.76-2.283 4.844-2.283 9.265zm-9.367.5c0-6.391 1.552-11.283 4.644-14.68 3.094-3.4 7.555-5.102 13.367-5.102 2.077 0 4.232.21 6.468.618v-15.09h9.368v41.722c0 3.616-1.355 6.725-4.054 9.328-2.702 2.604-6.834 3.9-12.394 3.9-1.291 0-2.586-.1-3.866-.306-1.284-.204-2.777-.747-4.49-1.614a15.668 15.668 0 01-4.476-3.386c-1.27-1.383-2.348-3.416-3.237-6.1-.888-2.681-1.33-5.778-1.33-9.29z" stroke="#C5C3C4" stroke-width="1.5"/><g transform="translate(149.87 24.276)"><mask id="f" fill="#fff"><use xlink:href="#d"/></mask><path d="M4.187 5.982C1.412 9.747.023 14.78.023 21.078c0 3.198.385 6.021 1.133 8.467.757 2.446 1.724 4.354 2.9 5.74a14.836 14.836 0 004.212 3.418c1.64.896 3.213 1.487 4.74 1.77 1.52.277 3.14.418 4.873.418 5.453 0 10.34-1.175 14.659-3.53v-7.606c-4.266 2.02-8.68 3.036-13.249 3.036-2.82 0-5.113-.575-6.873-1.728-1.767-1.154-2.777-3.435-3.027-6.835H34.63c.107-1.05.155-2.677.155-4.88 0-5.35-1.463-9.856-4.4-13.517C27.456 2.168 23.138.339 17.428.339c-6.049 0-10.456 1.882-13.24 5.643m7.544 4.384c1.308-1.515 3.13-2.27 5.467-2.27 2.331 0 4.166.927 5.496 2.783 1.336 1.851 2.127 4.126 2.383 6.82H9.391c.25-3.378 1.033-5.826 2.34-7.333" fill="url(#e)" mask="url(#f)"/></g><path d="M159.26 41.974h15.687c-.256-2.693-1.048-4.968-2.383-6.818-1.331-1.857-3.166-2.784-5.496-2.784-2.338 0-4.16.754-5.467 2.27-1.307 1.507-2.09 3.954-2.34 7.332zm-9.368 3.38c0-6.298 1.39-11.331 4.166-15.096 2.783-3.761 7.19-5.644 13.239-5.644 5.71 0 10.027 1.83 12.957 5.492 2.937 3.662 4.4 8.168 4.4 13.517 0 2.204-.047 3.83-.155 4.88H159.26c.25 3.402 1.26 5.682 3.027 6.836 1.76 1.154 4.053 1.729 6.874 1.729 4.568 0 8.983-1.017 13.248-3.037v7.606c-4.318 2.355-9.205 3.53-14.659 3.53a27.07 27.07 0 01-4.873-.418c-1.527-.283-3.1-.875-4.74-1.77a14.838 14.838 0 01-4.212-3.418c-1.175-1.386-2.143-3.294-2.9-5.74-.748-2.447-1.133-5.27-1.133-8.467z" stroke="#C5C3C4" stroke-width="1.5"/><g transform="translate(188.333 25.138)"><mask id="i" fill="#fff"><use xlink:href="#g"/></mask><path fill="url(#h)" mask="url(#i)" d="M29.869.169l-9.751 29.8L10.377.17H.397l14.887 39.25h9.75L39.917.169z"/></g><path stroke="#C5C3C4" stroke-width="1.5" d="M188.73 25.306h9.979l9.742 29.801 9.75-29.8h10.048l-14.882 39.25h-9.75z"/><g transform="translate(232.779 24.276)"><mask id="l" fill="#fff"><use xlink:href="#j"/></mask><path d="M5.031 5.715C1.86 9.197.276 14.189.276 20.692S1.86 32.191 5.031 35.671c3.176 3.482 7.723 5.22 13.654 5.22 5.93 0 10.473-1.738 13.648-5.22 3.177-3.48 4.766-8.476 4.766-14.979 0-6.503-1.589-11.495-4.766-14.977C29.158 2.232 24.616.492 18.685.492S8.207 2.232 5.03 5.715m6.834 24.864c-1.483-1.699-2.224-4.988-2.224-9.865s.74-8.175 2.224-9.893C13.349 9.109 15.631 8.25 18.7 8.25c3.079 0 5.345.859 6.824 2.57 1.463 1.719 2.206 5.017 2.206 9.894s-.743 8.166-2.206 9.865c-1.479 1.706-3.745 2.555-6.824 2.555-3.069 0-5.35-.849-6.836-2.555" fill="url(#k)" mask="url(#l)"/></g><path d="M244.645 35.096c-1.484 1.719-2.225 5.017-2.225 9.894s.74 8.166 2.225 9.865c1.484 1.706 3.767 2.554 6.835 2.554 3.079 0 5.345-.848 6.823-2.554 1.464-1.7 2.207-4.988 2.207-9.865s-.743-8.175-2.207-9.894c-1.478-1.71-3.744-2.57-6.823-2.57-3.068 0-5.351.86-6.835 2.57zm-6.836 24.85c-3.17-3.48-4.754-8.475-4.754-14.978s1.583-11.495 4.754-14.978c3.177-3.482 7.724-5.221 13.655-5.221 5.93 0 10.472 1.739 13.648 5.221 3.176 3.483 4.765 8.475 4.765 14.978s-1.589 11.498-4.765 14.978c-3.176 3.482-7.717 5.221-13.648 5.221s-10.478-1.739-13.655-5.22z" stroke="#C5C3C4" stroke-width="1.5"/><g transform="translate(278.08 24.276)"><mask id="o" fill="#fff"><use xlink:href="#m"/></mask><path d="M.66 4.717v35.564h9.368V9.442c2.538-.46 4.95-.691 7.233-.691 2.032 0 3.695.193 4.99.574 1.294.385 2.23.96 2.799 1.727.574.766.951 1.508 1.144 2.21.19.704.287 1.585.287 2.628v24.39h9.365V16.7c0-5.148-1.532-9.147-4.588-12C28.198 1.848 23.953.413 18.523.413 12.327.412 6.375 1.852.66 4.717" fill="url(#n)" mask="url(#o)"/></g><path d="M278.74 64.557V28.993c5.715-2.866 11.666-4.304 17.863-4.304 5.43 0 9.674 1.433 12.734 4.29 3.058 2.85 4.59 6.85 4.59 11.998v23.58h-9.366v-24.39c0-1.045-.098-1.924-.287-2.63-.193-.701-.569-1.443-1.144-2.209-.57-.768-1.505-1.342-2.8-1.727-1.294-.381-2.957-.575-4.99-.575-2.282 0-4.694.232-7.232.692v30.839h-9.368z" stroke="#C5C3C4" stroke-width="1.5"/><g transform="translate(323.381 8.759)"><mask id="r" fill="#fff"><use xlink:href="#p"/></mask><path d="M17.255.11c-.725.053-1.777.343-3.161.864-1.383.526-2.522 1.248-3.41 2.172-.889.922-1.68 2.356-2.379 4.299-.695 1.945-1.046 4.28-1.046 6.989v2.114H.56v5.183h6.7v34.067h5.639V21.731h10.66v-5.183h-10.66V14.36c0-2.15.214-3.9.64-5.242.435-1.345 1.11-2.278 2.024-2.806.91-.52 1.693-.836 2.341-.939.65-.103 1.59-.156 2.834-.156.84 0 1.777.104 2.82.312V.496c-1.091-.307-2.338-.46-3.735-.46-.988 0-1.845.026-2.567.073" fill="url(#q)" mask="url(#r)"/></g><path d="M323.94 30.49v-5.184h6.7v-2.114c0-2.708.351-5.043 1.047-6.988.698-1.944 1.49-3.377 2.378-4.3.888-.923 2.026-1.645 3.41-2.171 1.384-.522 2.436-.812 3.161-.865a39.083 39.083 0 012.568-.074c1.396 0 2.643.154 3.734.46v5.032c-1.044-.207-1.979-.31-2.82-.31-1.244 0-2.185.052-2.833.155-.649.103-1.432.418-2.341.939-.915.528-1.59 1.46-2.024 2.805-.428 1.343-.641 3.092-.641 5.242v2.19h10.659v5.183h-10.66v34.067h-5.637V30.49h-6.7z" stroke="#C5C3C4" stroke-width="1.5"/><g transform="translate(352.442 25.138)"><mask id="u" fill="#fff"><use xlink:href="#s"/></mask><path fill="url(#t)" mask="url(#u)" d="M49.435.169l-9.894 30.4-9.08-30.4H25.11l-8.95 30.375L6.227.169H.32l12.945 39.25h5.407L27.7 9.584l9.02 29.835h5.404L55.082.169z"/></g><path stroke="#C5C3C4" stroke-width="1.5" d="M352.763 25.306h5.905l9.935 30.375 8.949-30.375h5.35l9.081 30.402 9.895-30.402h5.646l-12.958 39.25h-5.404l-9.02-29.834-9.027 29.834h-5.407z"/><g transform="translate(2 31.172)"><mask id="x" fill="#fff"><use xlink:href="#v"/></mask><path fill="url(#w)" mask="url(#x)" d="M.082 7.074l20.942 36.85h7.916l5.727-20.552L27.711.727z"/></g><path stroke="#C5C3C4" stroke-width="1.5" d="M2.082 38.247l27.63-6.348 6.955 22.645-5.727 20.553h-7.916z"/><g transform="translate(2 1)"><mask id="A" fill="#fff"><use xlink:href="#y"/></mask><path fill="url(#z)" mask="url(#A)" d="M21.024.631L.082 37.247l27.63-6.348 15.947-9.772L49.434.63z"/></g><path stroke="#C5C3C4" stroke-width="1.5" d="M2.082 38.247l27.63-6.348 15.946-9.772L51.434 1.63h-28.41z"/><g transform="translate(50.72 1)"><mask id="D" fill="#fff"><use xlink:href="#B"/></mask><path fill="url(#C)" mask="url(#D)" d="M6.432.518L.698 21.075l6.97 22.635 27.616-6.335L14.339.518z"/></g><path stroke="#C5C3C4" stroke-width="1.5" d="M86.004 38.376L58.387 44.71 51.42 22.076l5.73-20.558h7.908z"/><g transform="translate(36.19 38.069)"><mask id="G" fill="#fff"><use xlink:href="#E"/></mask><path fill="url(#F)" mask="url(#G)" d="M22.198 6.641L6.201 16.56.468 36.922H28.87L49.814.306z"/></g><path stroke="#C5C3C4" stroke-width="1.5" d="M86.004 38.376L58.387 44.71 42.39 54.627l-5.733 20.364H65.06z"/></g></svg>