<svg width="30" height="30" viewBox="0 0 30 30" fill="none" xmlns="http://www.w3.org/2000/svg"><path fill-rule="evenodd" clip-rule="evenodd" d="M13.535 2.392l-.988 3.686h4.906l-.988-3.686a12.72 12.72 0 00-2.93 0zM7.121 5.05l3.305 1.908-3.469 3.469L5.05 7.12a12.719 12.719 0 012.072-2.072zm-1.043 7.498l-3.686.988a12.72 12.72 0 000 2.93l3.686.988v-4.906zM5.05 22.88l1.908-3.305 3.469 3.469L7.12 24.95a12.72 12.72 0 01-2.072-2.072zm7.498 1.043l.988 3.686c.973.112 1.957.112 2.93 0l.988-3.686h-4.906zM22.88 24.95l-3.305-1.908 3.469-3.469 1.908 3.305a12.72 12.72 0 01-2.072 2.072zm1.043-7.498l3.686-.988c.112-.973.112-1.957 0-2.93l-3.686-.988v4.906zM24.95 7.12l-1.908 3.305-3.469-3.469L22.88 5.05a12.716 12.716 0 012.072 2.072z" fill="#087299"/><path fill-rule="evenodd" clip-rule="evenodd" d="M5.192 15c0-5.417 4.391-9.808 9.808-9.808S24.808 9.583 24.808 15 20.417 24.808 15 24.808 5.192 20.417 5.192 15zm2.885 0a6.923 6.923 0 1013.846 0 6.923 6.923 0 00-13.846 0z" fill="#00A3E0"/></svg>