<svg width="30" height="30" viewBox="0 0 30 30" fill="none" xmlns="http://www.w3.org/2000/svg"><path d="M9.193 21.131l4.637-6.614 1.417.994-4.637 6.614-1.417-.994z" fill="#087299"/><path d="M14.753 15.51l1.417-.993 4.637 6.614-1.417.994-4.637-6.614z" fill="#087299"/><path d="M9.027 25.214a2.596 2.596 0 100-5.192 2.596 2.596 0 000 5.192zm11.946 0a2.596 2.596 0 100-5.192 2.596 2.596 0 000 5.192zM15 16.965a2.596 2.596 0 100-5.192 2.596 2.596 0 000 5.192z" fill="#00A3E0"/><path d="M25.384 9.58L15 2.307 4.616 9.58v10.267l2.308-3.291V10.78L15 5.125l8.077 5.656v5.774l2.307 3.291V9.58z" fill="#087299"/></svg>