<svg width="16" height="16" viewBox="0 0 16 16" fill="none" xmlns="http://www.w3.org/2000/svg"><g clip-path="url(#clip0_4421:294)"><path d="M15 1H1a1 1 0 00-1 1v12a1 1 0 001 1h14a1 1 0 001-1V2a1 1 0 00-1-1zm0 13H1V4h14v10z" fill="#00A3E0"/><path d="M3.65 10.85a.48.48 0 00.7 0l1.5-1.5a.48.48 0 000-.7l-1.5-1.5a.495.495 0 00-.7.7L4.79 9l-1.14 1.15a.48.48 0 000 .7zM9 11h3a.5.5 0 000-1H9a.5.5 0 000 1z" fill="#087299"/></g><defs><clipPath id="clip0_4421:294"><path fill="#fff" d="M0 0h16v16H0z"/></clipPath></defs></svg>