<svg width="30" height="30" viewBox="0 0 30 30" fill="none" xmlns="http://www.w3.org/2000/svg"><path d="M16.216 15.808a2.02 2.02 0 00-.982-3.784h-.03c-.05 0-.096.013-.144.016v8.053h.144c.72 0 1.433-.03 2.14-.09l-1.128-4.195z" fill="#087299"/><path d="M15.059 20.096v-8.052a2.01 2.01 0 00-.86 3.731l-1.136 4.237c.657.056 1.324.081 1.996.084z" fill="#00A3E0"/><path d="M15.059 28.178l10.385-7.265V2.154L23.614.886 15.058 6.9v2.816l8.076-5.65v15.646l-8.076 5.65v2.816z" fill="#087299"/><path d="M15.059 9.716V6.9L6.503.886 4.674 2.153v18.76l10.385 7.265v-2.817l-8.077-5.649V4.065l8.077 5.65z" fill="#00A3E0"/></svg>