<svg width="30" height="30" viewBox="0 0 30 30" fill="none" xmlns="http://www.w3.org/2000/svg"><path d="M11.063 18.281a1.687 1.687 0 11-3.375 0 1.687 1.687 0 013.375 0zM15 16.594a1.687 1.687 0 100 3.375 1.687 1.687 0 000-3.375zm5.625 0a1.687 1.687 0 100 3.375 1.687 1.687 0 000-3.375z" fill="#087299"/><path fill-rule="evenodd" clip-rule="evenodd" d="M22.5 24.375a5.625 5.625 0 001.866-10.932 5.625 5.625 0 00-7.329-5.677A6.562 6.562 0 005.633 11.88a6.563 6.563 0 002.805 12.496H22.5zm1.244-9.163a3.755 3.755 0 012.506 3.538 3.754 3.754 0 01-3.75 3.75H8.437a4.693 4.693 0 01-4.687-4.688 4.712 4.712 0 012.685-4.238l1.019-.483.052-1.125A4.678 4.678 0 0112.187 7.5c1.315 0 2.578.558 3.465 1.53l.81.888 1.146-.365a3.754 3.754 0 014.886 3.786l-.079 1.406 1.329.467z" fill="#00A3E0"/></svg>