<svg width="16" height="16" viewBox="0 0 16 16" fill="none" xmlns="http://www.w3.org/2000/svg"><path fill-rule="evenodd" clip-rule="evenodd" d="M7.139 7.139H3.354c-.215 0-.43.184-.43.4v3.23H1.661a.463.463 0 00-.431.431v3.077c0 .216.215.43.43.43h4.216c.216 0 .43-.215.43-.43V11.2a.463.463 0 00-.43-.43h-1.26V8.8h6.738v1.97h-1.261a.463.463 0 00-.431.43v3.077c0 .216.215.43.43.43h4.216c.215 0 .4-.215.4-.43V11.2c0-.215-.185-.43-.4-.43h-1.292V7.538c0-.216-.216-.4-.431-.4H8.83v-1.97h1.261c.216 0 .4-.215.4-.43V1.662c0-.216-.184-.431-.4-.431H5.877a.463.463 0 00-.43.43V4.74c0 .215.215.43.43.43H7.17v1.97h-.03z" fill="#747474"/></svg>