<svg width="30" height="30" viewBox="0 0 30 30" fill="none" xmlns="http://www.w3.org/2000/svg"><path d="M26.538 20.2l-6.346 4.443v-2.817l4.038-2.828v-7.996l-4.038-2.828V5.357l6.346 4.444V20.2z" fill="#087299"/><path d="M16.73 23.764v2.408a11.55 11.55 0 01-2.884.366C7.474 26.538 2.308 21.372 2.308 15S7.474 3.462 13.846 3.462c.996 0 1.963.128 2.885.366v2.408a9.168 9.168 0 00-2.885-.466c-5.09 0-9.23 4.14-9.23 9.23 0 5.09 4.14 9.23 9.23 9.23a9.17 9.17 0 002.885-.466z" fill="#00A3E0"/><path fill-rule="evenodd" clip-rule="evenodd" d="M17.697 13.846h3.072v2.308h-3.072c-.499 1.664-2.024 2.884-3.85 2.884a4.038 4.038 0 010-8.076c1.826 0 3.351 1.22 3.85 2.884zM11.54 15a2.31 2.31 0 002.307 2.308A2.31 2.31 0 0016.154 15a2.31 2.31 0 00-2.308-2.308A2.31 2.31 0 0011.54 15z" fill="#114459"/></svg>