<svg width="30" height="30" viewBox="0 0 30 30" fill="none" xmlns="http://www.w3.org/2000/svg"><path d="M23.71 20.291l1.896 1.327a11.524 11.524 0 01-9.452 4.92c-5.582 0-10.238-3.964-11.307-9.23h-2.54v-4.616h2.54c1.07-5.266 5.725-9.23 11.307-9.23 3.91 0 7.365 1.945 9.452 4.92L23.71 9.709a9.224 9.224 0 00-7.557-3.94c-5.09 0-9.23 4.141-9.23 9.231s4.14 9.23 9.23 9.23a9.224 9.224 0 007.557-3.939z" fill="#00A3E0"/><path fill-rule="evenodd" clip-rule="evenodd" d="M20.607 13.848l7.086.014-.004 2.292-7.079-.014c-.51 1.994-2.303 3.475-4.456 3.475a4.615 4.615 0 010-9.23c2.149 0 3.939 1.475 4.453 3.463zM13.847 15a2.31 2.31 0 002.307 2.308A2.31 2.31 0 0018.462 15a2.31 2.31 0 00-2.308-2.308A2.31 2.31 0 0013.846 15z" fill="#087299"/></svg>