<svg id="Layer_1" data-name="Layer 1" xmlns="http://www.w3.org/2000/svg" viewBox="0 0 16 16"><defs><style>.cls-1{fill:#067fab}.cls-2{fill:#939598}.cls-3{fill:#114459}.cls-4{fill:#48c1ed}</style></defs><path class="cls-1" d="M6.5 14L8 15l1.5-1L8 13l-1.5 1zm3-2l1.5 1 1.5-1-1.5-1-1.5 1z"/><path class="cls-2" d="M9.5 6L8 5 6.5 6 8 7l1.5-1z"/><path class="cls-1" d="M14 9l-1.5 1 1.5 1 1.5-1L14 9z"/><path class="cls-2" d="M11 7L9.5 8 11 9l1.5-1L11 7z"/><path class="cls-1" d="M5 11l-1.5 1L5 13l1.5-1L5 11zM2 9L.5 10 2 11l1.5-1L2 9z"/><path class="cls-3" d="M8 7v4l1.5-1V6L8 7z"/><path class="cls-1" d="M11 7L9.5 8 11 9l1.5-1L11 7zM8 9l-1.5 1L8 11l1.5-1L8 9z"/><path class="cls-4" d="M6.5 4L5 3 3.5 4 5 5l1.5-1z"/><path class="cls-4" d="M8 3L6.5 2 5 3l1.5 1L8 3zM5 5L3.5 4 2 5l1.5 1L5 5zm1.5 1L8 7l1.5-1L8 5 6.5 6z"/><path class="cls-4" d="M9.5 2L8 1 6.5 2 8 3l1.5-1zM11 5l1.5-1L11 3 9.5 4 11 5z"/><path class="cls-4" d="M9.5 4L11 3 9.5 2 8 3l1.5 1zm3 0L11 5l1.5 1L14 5l-1.5-1z"/><path class="cls-4" d="M14 5l-1.5 1L14 7l1.5-1L14 5zM2 5L.5 6 2 7l1.5-1L2 5zm4.5 1L5 7l1.5 1L8 7 6.5 6z"/><path class="cls-4" d="M5 7L3.5 8 5 9l1.5-1L5 7z"/><path class="cls-4" d="M3.5 6L2 7l1.5 1L5 7 3.5 6z"/><path class="cls-3" d="M14 7v4l1.5-1V6L14 7z"/></svg>