<svg width="30" height="30" viewBox="0 0 30 30" fill="none" xmlns="http://www.w3.org/2000/svg"><path fill-rule="evenodd" clip-rule="evenodd" d="M6.066 3.462h9.51c4.951 0 9.166 3.12 10.804 7.5h-2.53c-1.501-3.067-4.629-5.193-8.273-5.193H4.86a22.24 22.24 0 011.206-2.307zm9.51 23.076c6.373 0 11.54-5.166 11.54-11.538 0-.39-.02-.774-.058-1.154h-8.596v2.308h6.266c-.569 4.552-4.445 8.077-9.151 8.077H4.86a22.24 22.24 0 001.206 2.307h9.51z" fill="#00A3E0"/><path fill-rule="evenodd" clip-rule="evenodd" d="M7.5 8.654v2.307H3.247c.142-.784.325-1.553.547-2.307H7.5zM2.885 15c0 .387.01.772.029 1.154H7.5v-2.308H2.914c-.02.382-.03.767-.03 1.154zM7.5 21.346H3.794a22.344 22.344 0 01-.547-2.308H7.5v2.308zM19.615 15a4.039 4.039 0 11-8.077 0 4.039 4.039 0 018.077 0zm-4.038-2.308a2.308 2.308 0 110 4.616 2.308 2.308 0 010-4.616z" fill="#087299"/></svg>