<svg width="30" height="30" viewBox="0 0 30 30" fill="none" xmlns="http://www.w3.org/2000/svg"><path d="M8.357 19.615h5.491l-1.616 2.308H7.155L2.308 15l4.847-6.923h5.077l1.616 2.308H8.357L5.125 15l3.232 4.615z" fill="#087299"/><path d="M17.08 15l-1.616 2.308h-2.422L11.426 15l1.616-2.308h2.422L17.08 15z" fill="#114459"/><path d="M27.692 15c0 6.372-5.165 11.538-11.538 11.538h-3.46l-1.615-2.307h5.075c5.09 0 9.23-4.141 9.23-9.231s-4.14-9.23-9.23-9.23H11.08l1.616-2.308h3.46c6.372 0 11.537 5.166 11.537 11.538z" fill="#00A3E0"/></svg>