<svg width="30" height="31" viewBox="0 0 30 31" fill="none" xmlns="http://www.w3.org/2000/svg"><path fill-rule="evenodd" clip-rule="evenodd" d="M21.814 4.294a24.073 24.073 0 00-4.1-2.5L4.606 21.979v8.812l7.68-3.014L25.394 7.592a25.083 25.083 0 00-3.58-3.298zm-3.48-.117c.825.471 1.627 1 2.404 1.586a23.25 23.25 0 012.204 1.893l-2.696 4.153-4.608-3.48 2.697-4.152zM6.482 27.296l4.608-1.809 8.081-12.444-1.536-1.16-7.386 11.375-1.536-1.16 7.386-11.374-1.535-1.16L6.48 22.008v5.288z" fill="#000"/></svg>