<svg width="30" height="30" viewBox="0 0 30 30" fill="none" xmlns="http://www.w3.org/2000/svg"><path d="M27.608 13.535l-1.912-.512-.622-.167a10.242 10.242 0 00-1.434-3.465l.321-.556.99-1.714a12.845 12.845 0 00-2.072-2.072l-1.713.99-.546.315A10.242 10.242 0 0017.137 4.9l-.16-.597-.512-1.91a12.843 12.843 0 00-2.93 0l-.512 1.91-.158.588a10.25 10.25 0 00-3.501 1.453l-.53-.306-1.713-.989A12.781 12.781 0 005.05 7.121l.99 1.714.305.529a10.24 10.24 0 00-1.453 3.501l-.587.158-1.912.512a12.819 12.819 0 000 2.93l1.912.512.596.16a10.24 10.24 0 001.454 3.482l-.315.546-.99 1.714a12.807 12.807 0 002.072 2.072l1.714-.99.556-.32c1.042.674 2.21 1.17 3.465 1.433l.167.623.512 1.91a12.838 12.838 0 002.93 0l.512-1.91.17-.632a10.245 10.245 0 003.446-1.434l.572.33 1.714.99a12.85 12.85 0 002.072-2.072l-.99-1.714-.33-.572a10.24 10.24 0 001.434-3.447l.631-.169 1.912-.512a12.809 12.809 0 000-2.93z" fill="#00A3E0"/><path d="M14.984 23.422c-4.652 0-8.438-3.786-8.438-8.438 0-4.652 3.785-8.438 8.438-8.438 4.652 0 8.437 3.786 8.437 8.438 0 4.652-3.785 8.438-8.437 8.438z" fill="#fff"/><path d="M19.688 15a4.687 4.687 0 11-9.375 0 4.687 4.687 0 019.374 0z" fill="#087299"/></svg>