<svg width="30" height="30" viewBox="0 0 30 30" fill="none" xmlns="http://www.w3.org/2000/svg"><path fill-rule="evenodd" clip-rule="evenodd" d="M4.038 15c0-2.402.774-4.624 2.084-6.43L4.885 7.333A12.636 12.636 0 002.308 15c0 2.88.96 5.537 2.577 7.667l1.237-1.237A10.91 10.91 0 014.038 15zm19.84-6.43l1.237-1.237A12.635 12.635 0 0127.692 15c0 2.88-.96 5.537-2.577 7.667l-1.237-1.237A10.911 10.911 0 0025.962 15c0-2.402-.774-4.624-2.084-6.43z" fill="#114459"/><path d="M25.115 7.333L7.333 25.115a12.754 12.754 0 01-2.448-2.448L22.667 4.885c.923.7 1.747 1.525 2.448 2.448z" fill="#00A3E0"/><path fill-rule="evenodd" clip-rule="evenodd" d="M13.368 10.92L7.333 4.885c-.923.7-1.747 1.525-2.448 2.448l6.036 6.035 2.447-2.448zm3.264 8.16l2.447-2.448 6.036 6.035c-.7.923-1.525 1.747-2.448 2.448l-6.035-6.036z" fill="#087299"/></svg>