<svg width="16" height="16" viewBox="0 0 16 16" fill="none" xmlns="http://www.w3.org/2000/svg"><path fill-rule="evenodd" clip-rule="evenodd" d="M7.427 2.716a3.5 3.5 0 115.734 4.015l-1.434 2.048-.819-.574 1.434-2.048a2.503 2.503 0 00-.614-3.481 2.503 2.503 0 00-3.482.613L6.812 5.337l-.819-.573 1.434-2.048zm2.165 2.139l.82.573-4.004 5.717-.82-.573 4.004-5.717zM7.754 12.71a2.503 2.503 0 01-3.482.613 2.503 2.503 0 01-.614-3.481l1.434-2.048-.82-.574L2.84 9.27a3.5 3.5 0 105.734 4.015l1.434-2.048-.82-.573-1.433 2.048z" fill="#48C1ED"/></svg>