<svg width="30" height="30" viewBox="0 0 30 30" fill="none" xmlns="http://www.w3.org/2000/svg"><path d="M20.938 18.462H18.12l-3.035-4.335-3.035 4.335h-2.009l-3.035-4.335-3.035 4.335H1.154L6 11.539h2.01l3.035 4.334 3.035-4.334h2.009l4.848 6.923z" fill="#00A3E0"/><path d="M24.747 23.902l1.844 2.636h-2.817l-.807-1.153H6.484a15.076 15.076 0 01-1.818-2.308h17.818a12.597 12.597 0 002.9-8.077c0-2.983-1.022-5.808-2.9-8.077H4.666a15.09 15.09 0 011.818-2.308h17.032a15.09 15.09 0 011.818 2.308A14.93 14.93 0 0127.692 15a14.93 14.93 0 01-2.358 8.077c-.182.285-.386.554-.587.825z" fill="#087299"/></svg>