<svg width="30" height="30" viewBox="0 0 30 30" fill="none" xmlns="http://www.w3.org/2000/svg"><path d="M25.384 17.26l1.814 1.27a12.472 12.472 0 01-.703 1.932l-2.206-.192a10.304 10.304 0 01-1.242 1.772l.936 2.008a12.507 12.507 0 01-1.576 1.322l-1.814-1.27c-.615.371-1.272.68-1.962.916l-.193 2.205a12.424 12.424 0 01-2.025.357l-.937-2.009a10.326 10.326 0 01-2.156-.187l-1.27 1.814a12.583 12.583 0 01-1.933-.703l.193-2.206a10.306 10.306 0 01-1.772-1.242l-2.008.936a12.473 12.473 0 01-1.322-1.576l1.27-1.814a10.174 10.174 0 01-.916-1.962l-2.205-.193A12.51 12.51 0 013 16.413l2.009-.937-.003-.186c0-.674.066-1.332.19-1.97l-1.814-1.27a12.493 12.493 0 01.703-1.933l2.206.193a10.31 10.31 0 011.242-1.772L6.597 6.53a12.548 12.548 0 011.576-1.322l1.813 1.27c.615-.371 1.272-.68 1.963-.916l.193-2.205A12.37 12.37 0 0114.167 3l.91 1.95.027.059.48 1.03a9.183 9.183 0 00-.294-.004c-5.103 0-9.255 4.152-9.255 9.255 0 5.103 4.152 9.255 9.255 9.255 5.103 0 9.255-4.152 9.255-9.255a9.205 9.205 0 00-.663-3.44l3.34.292a12.479 12.479 0 01.358 2.025l-2.009.937.003.186c0 .674-.066 1.332-.19 1.97z" fill="#00A2DF"/><path d="M23.459 6.08a12.408 12.408 0 00-2.372-1.649l-1.171 1.673a10.31 10.31 0 012.37 1.65L23.46 6.08z" fill="#114459"/><path d="M13.232 15.65l6.088-8.694a9.274 9.274 0 012.37 1.65l-6.092 8.7-2.366.861V15.65z" fill="#087299"/></svg>