<svg width="30" height="30" viewBox="0 0 30 30" fill="none" xmlns="http://www.w3.org/2000/svg"><path fill-rule="evenodd" clip-rule="evenodd" d="M22.937 9.421a1.406 1.406 0 100 2.813 1.406 1.406 0 000-2.813zm-6.698 9.797a1.406 1.406 0 112.813 0 1.406 1.406 0 01-2.813 0zm6.698 1.407a1.406 1.406 0 100-2.813 1.406 1.406 0 000 2.813zm-6.697-9.797a1.406 1.406 0 112.812 0 1.406 1.406 0 01-2.812 0z" fill="#087299"/><path fill-rule="evenodd" clip-rule="evenodd" d="M8.438 22.5a4.693 4.693 0 01-4.687-4.688 4.712 4.712 0 012.685-4.238l1.018-.483.052-1.125A4.678 4.678 0 0112.188 7.5h.932V5.625h-.932a6.562 6.562 0 00-6.555 6.254 6.562 6.562 0 002.805 12.496h4.682V22.5H8.438zm8.437-14.973V5.652l11.25-.027v18.75h-11.25V22.5h9.375v-6.563h-9.375v-1.874h9.375V7.5l-9.375.027z" fill="#00A1DF"/></svg>