<svg width="30" height="30" viewBox="0 0 30 30" fill="none" xmlns="http://www.w3.org/2000/svg"><path d="M6.788 16.55h10.634v1.667H6.788V16.55z" fill="#087299"/><path d="M17.432 18.996a1.668 1.668 0 001.66-1.677 1.669 1.669 0 00-1.68-1.655 1.668 1.668 0 00-1.66 1.676c.005.92.757 1.661 1.68 1.656z" fill="#114459"/><path d="M21.572 12.64l3.558-.003.004 8.081-4.48-.003.091.002-15.875.012-.004-6.665 7.485-.004-.01-1.667-9.147.007.007 9.996 17.545-.011.777-.002 5.283.01-.006-11.43h-3.586a5.842 5.842 0 00-5.82-5.238 5.84 5.84 0 00-4.322 1.907 5.022 5.022 0 00-6.25 3.1l1.835-.001a3.343 3.343 0 013.907-1.512l1.021.324.723-.789a4.194 4.194 0 013.086-1.361 4.163 4.163 0 014.175 3.964l-.002.16" fill="#00A3E0"/></svg>