<svg width="30" height="30" viewBox="0 0 30 30" fill="none" xmlns="http://www.w3.org/2000/svg"><path d="M26.538 15c0-6.373-5.166-11.538-11.538-11.538C8.627 3.462 3.462 8.627 3.462 15c0 5.377 3.677 9.894 8.653 11.175v-1.8A9.808 9.808 0 015.192 15c0-5.417 4.391-9.808 9.808-9.808S24.808 9.583 24.808 15a9.776 9.776 0 01-2.854 6.915l1.007 1.437A11.505 11.505 0 0026.539 15z" fill="#087299"/><path fill-rule="evenodd" clip-rule="evenodd" d="M23.08 26.538l-5.106-7.29A5.18 5.18 0 0020.192 15 5.192 5.192 0 1015 20.192c.25 0 .489-.035.728-.071l.037-.005 4.497 6.422h2.817zM12.115 15a2.885 2.885 0 115.769 0 2.885 2.885 0 01-5.77 0zm.576 7.385l-2.307-1.616v5.77h2.307v-4.154z" fill="#00A3E0"/></svg>