<svg width="30" height="30" viewBox="0 0 30 30" fill="none" xmlns="http://www.w3.org/2000/svg"><circle cx="6.27" cy="10.22" r="1.78" fill="#087299"/><circle cx="6.27" cy="19.11" r="1.78" fill="#087299"/><circle cx="24.07" cy="19.11" r="1.78" fill="#087299"/><circle cx="24.07" cy="10.22" r="1.78" fill="#087299"/><circle cx="15.17" cy="2.78" r="1.78" fill="#087299"/><circle cx="15.17" cy="10.22" r="1.78" fill="#087299"/><path fill="#00a2df" d="M14.34 12.8h1.67v3.72h-1.67zm7.15-5.28l-3.72-2.63v2.05l3.72 2.62V7.52z"/><path fill="#48c1ed" d="M21.49 14.96l-3.72-2.63v2.04L21.49 17v-2.04zm-8.89 0l-3.72-2.63v2.04L12.6 17v-2.04z"/><path fill="#00a2df" d="M12.6 22.39l-3.72-2.62v2.04l3.72 2.63v-2.05z"/><circle cx="15.17" cy="19.11" r="1.78" fill="#087299"/><circle cx="15.17" cy="26.55" r="1.78" fill="#087299"/></svg>