<svg width="30" height="30" viewBox="0 0 30 30" fill="none" xmlns="http://www.w3.org/2000/svg"><path d="M19.892 4.327v6.923l2.447 2.446V6.773l-2.447-2.446zm-9.784 4.05L7.662 9.392v3.462l2.446 2.446v-3.462l9.784 9.774 2.447-1.004L10.107 8.377zm-2.446 14.85l2.446 2.446v-3.461l-2.446-2.447v3.462z" fill="#087299"/><path d="M10.108 15.3l-2.446-2.446-2.435-2.446-2.446 1.015v13.823l2.446 2.446V13.87L15 23.642v-3.461L10.108 15.3zM24.773 2.308V16.13L15 6.358v3.461l9.773 9.773 2.446-1.015V4.754l-2.446-2.446z" fill="#00A3E0"/></svg>